<?xml version="1.0" standalone="no"?>
<!DOCTYPE svg PUBLIC "-//W3C//DTD SVG 20010904//EN"
 "http://www.w3.org/TR/2001/REC-SVG-20010904/DTD/svg10.dtd">
<svg version="1.0" xmlns="http://www.w3.org/2000/svg"
 width="260.000000pt" height="260.000000pt" viewBox="0 0 260.000000 260.000000"
 preserveAspectRatio="xMidYMid meet">
<metadata>
Created by potrace 1.11, written by Peter Selinger 2001-2013
</metadata>
<g transform="translate(0.000000,260.000000) scale(0.100000,-0.100000)"
fill="#000000" stroke="none">
<path d="M2350 2394 c-102 -22 -109 -26 -264 -144 l-147 -112 3 -61 c2 -48 7
-63 19 -65 25 -5 49 26 49 63 0 30 7 39 76 89 42 31 82 56 90 56 27 0 171 62
214 92 53 38 91 78 84 90 -7 11 -48 9 -124 -8z"/>
<path d="M1100 2325 c-217 -40 -349 -112 -365 -199 -5 -22 -3 -48 4 -63 13
-28 17 -28 136 5 106 30 232 42 425 42 193 0 319 -12 425 -42 142 -39 145 -38
145 47 0 46 -4 55 -37 87 -44 43 -104 70 -228 104 -75 21 -118 26 -260 29
-118 3 -193 0 -245 -10z"/>
<path d="M1069 1956 c-2 -2 -46 -7 -97 -10 -51 -4 -102 -9 -112 -11 -10 -2
-45 -6 -77 -10 -191 -20 -447 -92 -568 -159 -150 -84 -194 -160 -146 -254 57
-112 270 -206 630 -278 14 -3 21 -8 15 -12 -14 -11 -48 -81 -41 -88 3 -3 29 2
57 11 49 16 52 16 65 -1 14 -21 6 -47 -20 -62 -34 -18 -119 -109 -131 -139
-18 -42 -18 -93 -1 -93 7 0 22 7 33 15 27 20 64 19 65 -2 0 -10 2 -27 4 -38 2
-11 -6 -33 -19 -50 -32 -43 -36 -60 -20 -84 19 -26 38 -27 55 -1 21 30 74 34
88 7 13 -27 11 -45 -12 -77 -22 -32 -22 -63 2 -84 18 -16 20 -16 33 0 42 52
102 104 121 104 7 0 17 3 21 7 4 5 12 9 17 9 5 1 10 2 12 3 1 2 13 4 27 6 14
2 39 7 55 11 42 10 313 10 350 0 17 -4 37 -9 45 -10 64 -12 90 -19 90 -27 0
-5 7 -9 15 -9 9 0 40 -25 69 -55 55 -58 66 -64 66 -40 0 8 5 15 12 15 6 0 8 3
5 7 -4 3 -2 11 3 18 7 8 3 19 -11 33 -28 31 -32 76 -8 98 16 14 23 15 49 4 17
-7 35 -20 40 -29 12 -22 42 -4 51 32 6 21 1 32 -19 53 -21 20 -26 35 -26 66 1
22 7 44 14 48 13 8 42 -4 68 -28 20 -18 32 -6 32 32 0 57 -42 117 -132 190
-42 34 -46 40 -36 60 6 11 12 22 13 23 1 2 25 -4 54 -13 29 -8 56 -13 59 -10
3 4 -4 25 -16 47 -28 52 -28 59 3 59 48 0 251 53 351 91 328 127 375 295 120
434 -102 55 -227 97 -386 129 -118 24 -157 30 -275 42 -27 3 -61 8 -75 11 -27
5 -576 14 -581 9z m-145 -616 c14 -5 46 -11 73 -14 158 -15 175 -18 199 -45
33 -36 33 -91 -1 -127 -15 -16 -23 -20 -19 -11 14 38 -19 97 -56 97 -11 0 -36
-11 -56 -25 -45 -30 -71 -31 -128 -4 -67 31 -90 60 -82 103 7 39 23 44 70 26z
m822 -26 c8 -43 -15 -72 -82 -103 -57 -27 -83 -26 -127 3 -36 25 -79 28 -99 8
-7 -7 -12 -27 -12 -47 -1 -19 -3 -35 -5 -35 -2 0 -14 12 -26 26 -18 21 -21 32
-15 58 19 80 29 85 213 102 32 3 68 9 80 14 47 19 66 12 73 -26z m-627 -229
c-13 -7 -33 -30 -43 -49 -18 -34 -18 -39 -4 -70 10 -20 31 -40 54 -51 81 -38
269 -37 351 2 21 9 41 30 51 50 16 33 16 37 -5 71 -11 21 -30 42 -42 48 -16 8
-18 13 -9 22 7 7 21 12 33 12 24 0 125 -93 125 -115 0 -8 3 -15 8 -15 5 0 8
-86 3 -129 -1 -5 -12 -16 -26 -25 -24 -16 -28 -16 -60 0 -43 20 -96 26 -113
12 -19 -16 -74 -47 -104 -59 -16 -6 -28 -15 -28 -20 0 -9 -87 35 -140 71 -31
21 -89 19 -123 -3 -28 -18 -63 -12 -83 14 -8 11 -12 112 -5 122 2 1 4 12 7 24
2 13 30 47 61 77 57 54 58 54 87 39 l30 -15 -25 -13z"/>
<path d="M1213 574 c-28 -6 -83 -60 -83 -81 0 -8 7 -30 16 -49 9 -19 14 -37
11 -41 -7 -6 -14 -1 -101 66 -53 41 -58 43 -73 28 -15 -15 -14 -19 18 -46 19
-17 36 -31 39 -31 3 0 14 -14 24 -30 9 -17 36 -42 58 -56 39 -25 48 -26 172
-26 152 1 190 12 233 69 15 21 35 43 43 49 61 47 73 67 44 78 -17 6 -56 -17
-117 -71 -57 -51 -71 -43 -40 22 14 30 15 38 3 60 -24 44 -58 59 -145 61 -44
1 -90 0 -102 -2z"/>
</g>
</svg>
