<?xml version="1.0" standalone="no"?>
<!DOCTYPE svg PUBLIC "-//W3C//DTD SVG 20010904//EN"
 "http://www.w3.org/TR/2001/REC-SVG-20010904/DTD/svg10.dtd">
<svg version="1.0" xmlns="http://www.w3.org/2000/svg"
 width="260.000000pt" height="260.000000pt" viewBox="0 0 260.000000 260.000000"
 preserveAspectRatio="xMidYMid meet">
<metadata>
Created by potrace 1.11, written by Peter Selinger 2001-2013
</metadata>
<g transform="translate(0.000000,260.000000) scale(0.100000,-0.100000)"
fill="#000000" stroke="none">
<path d="M789 2585 c-19 -18 -179 -38 -401 -49 -179 -9 -261 -16 -272 -25 -20
-17 -21 -74 -2 -90 13 -11 180 -9 323 4 l51 5 7 -68 c3 -37 12 -101 20 -142 8
-41 21 -149 30 -240 10 -91 20 -172 25 -180 9 -19 67 -25 86 -9 25 21 10 263
-31 482 -8 42 -15 94 -15 115 l0 38 118 23 c64 13 135 25 157 28 22 3 46 10
53 15 15 13 16 70 0 86 -11 11 -139 18 -149 7z"/>
<path d="M893 1831 c-69 -55 -147 -141 -172 -189 -27 -53 -30 -184 -4 -222 74
-112 191 -158 376 -148 116 6 151 21 155 66 5 55 -12 66 -88 56 -114 -14 -183
-8 -250 22 -34 15 -65 35 -70 44 -9 16 -1 18 78 22 103 5 167 33 225 97 36 40
37 44 37 116 l0 76 -46 49 -47 50 -72 0 c-70 0 -75 -2 -122 -39z m161 -104
c19 -26 19 -30 6 -54 -20 -35 -98 -73 -166 -80 -30 -3 -54 -3 -54 1 0 30 151
169 178 164 8 -2 24 -16 36 -31z"/>
<path d="M1500 1359 c-14 -6 -37 -22 -52 -36 -25 -24 -28 -34 -28 -93 0 -64 1
-67 43 -106 23 -22 65 -55 92 -72 75 -48 95 -67 101 -100 5 -25 2 -33 -21 -48
-25 -17 -29 -16 -88 4 -104 37 -141 26 -135 -40 3 -29 10 -36 63 -62 73 -36
158 -45 201 -23 16 8 44 31 63 51 59 61 55 170 -8 239 -27 30 -146 117 -160
117 -4 0 -16 9 -27 21 -35 38 3 45 139 23 47 -8 67 8 67 51 0 45 -27 65 -101
75 -80 12 -117 11 -149 -1z"/>
<path d="M2120 945 c-7 -8 -21 -75 -31 -148 -11 -72 -21 -142 -24 -154 -5 -22
-9 -23 -133 -23 -86 0 -132 -4 -140 -12 -16 -16 -15 -73 1 -86 6 -5 65 -12
129 -14 64 -1 118 -5 121 -8 2 -3 0 -58 -5 -124 -10 -133 -5 -146 48 -146 45
0 64 29 64 100 0 30 3 79 7 108 l6 53 138 -7 c106 -5 142 -4 154 6 18 15 20
76 3 87 -7 4 -70 13 -140 19 -70 6 -130 12 -132 15 -3 3 5 74 16 158 16 110
19 157 11 169 -14 23 -76 28 -93 7z"/>
</g>
</svg>
